<svg xmlns="http://www.w3.org/2000/svg" width="125" height="42" id="Layer_2" data-name="Layer 2" viewBox="0 0 620 183.86"><defs><style> .cls-1 { fill: #007991; } .cls-2 { fill: #25b0b4; } .cls-3 { fill: #152439; } .cls-4 { fill: #ef4949; } .cls-5 { fill: #4bc779; } .cls-6 { fill: #f49d00; } </style></defs><rect width="100%" height="100%" fill="white" /><g id="Layer_1-2" data-name="Layer 1"><g><g><circle class="cls-5" cx="67.12" cy="121.1" r="28.5"></circle><circle class="cls-5" cx="67.12" cy="121.1" r="28.5"></circle><g><path class="cls-6" d="M200.89,52.4c11.92,0,22.59,5.29,29.87,13.62l37.07-37.06C251.04,11.15,227.25,0,200.89,0s-49.23,10.74-65.97,27.94l-.02.02s-.08.09-.12.13h.01c.08.08.16.17.24.25,1.44,1.48,2.83,3.01,4.17,4.58.89,1.05,1.76,2.12,2.61,3.21.42.54.84,1.09,1.25,1.64.42.56.83,1.12,1.22,1.68.4.56.79,1.13,1.18,1.7.5.74.99,1.48,1.46,2.23.34.53.67,1.06.98,1.59.02.01.03.02.03.04.33.54.66,1.09.97,1.64.15.24.29.48.42.73.29.51.57,1.02.85,1.54.21.38.41.76.61,1.14.33.62.65,1.24.95,1.86.31.62.61,1.25.91,1.88.48,1.01.93,2.03,1.36,3.06.11.25.22.51.32.76,1.08,2.59,2.03,5.23,2.87,7.92.21.66.4,1.32.59,1.99.19.66.37,1.33.55,2,.2.77.4,1.55.58,2.34.16.71.32,1.43.47,2.15.05.22.09.44.14.66.12.62.24,1.24.35,1.86.02.07.03.15.03.22.12.61.22,1.23.31,1.85.05.22.08.45.11.68.11.71.21,1.42.29,2.14.09.68.17,1.36.23,2.04.03.25.06.5.08.75.14,1.52.25,3.05.32,4.59v.44c0,.16.01.36.01.59.01.35.02.66.03,1.13.02-.66.05-1.21.11-1.86,1.5-20.47,18.63-36.69,39.51-36.69Z"></path><path class="cls-4" d="M200.89,131.46c-20.47,0-37.4-15.61-39.44-35.58l-.13-1.66c0,.7.01,1.31.02,1.86v78.84s.05.03.07.04c.01,0,.03.02.04.02,11.97,5.69,25.33,8.88,39.44,8.88,24.01,0,45.9-9.25,62.28-24.34l-37.09-37.11c-6.86,5.65-15.62,9.05-25.19,9.05Z"></path></g><g><path class="cls-3" d="M302.4,33.76v3.4h6.49v17.75h3.76v-17.75h6.49v-3.4h-16.73Z"></path><path class="cls-3" d="M337.74,33.76v8.43h-9.89v-8.43h-3.77v21.15h3.77v-9.33h9.89v9.33h3.76v-21.15h-3.76Z"></path><path class="cls-3" d="M352.98,51.5v-5.74h9.71v-3.41h-9.71v-5.2h10.25v-3.4h-14.01v21.15h14.55v-3.41h-10.79Z"></path><path class="cls-3" d="M317.48,72.26h-4.62l-13.07,30.01h5.98l2.72-6.87h13.02l2.8,6.87h6.1l-12.93-30.01ZM310.31,90.83l4.71-12.21,4.62,12.21h-9.33Z"></path><path class="cls-3" d="M354.79,94.55c-.99,1.28-2.06,2.2-3.2,2.78-1.15.58-2.33.87-3.54.87-1.56,0-2.97-.28-4.23-.85-1.25-.56-2.34-1.34-3.24-2.33-.9-.99-1.6-2.16-2.1-3.52-.49-1.36-.74-2.84-.74-4.45,0-1.5.25-2.9.74-4.2.5-1.3,1.2-2.44,2.1-3.41.9-.98,1.99-1.74,3.24-2.29,1.26-.55,2.67-.83,4.23-.83,1.04,0,2.08.2,3.11.59,1.03.4,2.1,1.19,3.2,2.38l4.16-3.06c-1.5-1.72-3.12-2.94-4.86-3.66-1.73-.73-3.62-1.09-5.66-1.09-2.32,0-4.44.38-6.38,1.13s-3.6,1.82-5,3.2c-1.4,1.39-2.5,3.06-3.29,5.03-.79,1.96-1.19,4.15-1.19,6.55s.4,4.48,1.19,6.4c.79,1.93,1.89,3.57,3.29,4.94,1.4,1.37,3.06,2.43,5,3.18,1.94.75,4.06,1.13,6.38,1.13s4.29-.43,6.24-1.27c1.95-.85,3.6-2.21,4.96-4.08l-4.41-3.14Z"></path><path class="cls-3" d="M384.68,94.55c-.99,1.28-2.06,2.2-3.21,2.78-1.14.58-2.32.87-3.54.87-1.55,0-2.96-.28-4.22-.85-1.25-.56-2.34-1.34-3.24-2.33-.91-.99-1.61-2.16-2.1-3.52-.49-1.36-.74-2.84-.74-4.45,0-1.5.25-2.9.74-4.2.49-1.3,1.19-2.44,2.1-3.41.9-.98,1.99-1.74,3.24-2.29,1.26-.55,2.67-.83,4.22-.83,1.05,0,2.09.2,3.12.59,1.03.4,2.1,1.19,3.2,2.38l4.16-3.06c-1.5-1.72-3.12-2.94-4.86-3.66-1.74-.73-3.62-1.09-5.66-1.09-2.32,0-4.45.38-6.38,1.13-1.94.75-3.61,1.82-5.01,3.2-1.4,1.39-2.49,3.06-3.28,5.03-.8,1.96-1.19,4.15-1.19,6.55s.39,4.48,1.19,6.4c.79,1.93,1.88,3.57,3.28,4.94,1.4,1.37,3.07,2.43,5.01,3.18,1.93.75,4.06,1.13,6.38,1.13s4.28-.43,6.24-1.27c1.95-.85,3.6-2.21,4.96-4.08l-4.41-3.14Z"></path><path class="cls-3" d="M399.72,97.44v-8.14h13.78v-4.84h-13.78v-7.38h14.54v-4.83h-19.88v30.01h20.64v-4.83h-15.3Z"></path><path class="cls-3" d="M428.17,97.44v-25.18h-5.34v30.01h18.09v-4.83h-12.76Z"></path><path class="cls-3" d="M451.87,97.44v-8.14h13.77v-4.84h-13.77v-7.38h14.53v-4.83h-19.88v30.01h20.65v-4.83h-15.3Z"></path><path class="cls-3" d="M488.8,89.01c2.23-.31,3.95-1.2,5.15-2.67,1.2-1.47,1.8-3.3,1.8-5.47,0-1.7-.31-3.1-.93-4.2-.62-1.1-1.46-1.98-2.5-2.63-1.05-.65-2.25-1.11-3.59-1.38-1.34-.27-2.73-.4-4.18-.4h-10.43v30.01h5.35v-12.72h3.9l6.95,12.72h6.45l-7.97-13.27ZM485.91,84.87c-.76.08-1.53.11-2.29.11h-4.15v-8.14h4.62c.68,0,1.38.04,2.1.12.72.09,1.38.27,1.97.54.59.26,1.07.67,1.44,1.2.37.54.55,1.25.55,2.12,0,.99-.2,1.76-.59,2.32-.4.55-.91.96-1.55,1.23-.64.26-1.33.43-2.1.5Z"></path><path class="cls-3" d="M518.56,72.26h-4.63l-13.06,30.01h5.98l2.72-6.87h13.01l2.8,6.87h6.11l-12.93-30.01ZM511.39,90.83l4.71-12.21,4.62,12.21h-9.33Z"></path><path class="cls-3" d="M531.27,72.26v4.83h9.2v25.18h5.35v-25.18h9.2v-4.83h-23.74Z"></path><path class="cls-3" d="M588.55,80.7c-.8-1.95-1.9-3.62-3.31-5.01-1.42-1.38-3.1-2.44-5.05-3.16-1.95-.72-4.1-1.06-6.45-1.04-2.32,0-4.44.38-6.38,1.13-1.94.75-3.6,1.82-5,3.2-1.4,1.39-2.5,3.06-3.29,5.03-.79,1.96-1.19,4.15-1.19,6.55s.4,4.48,1.19,6.4c.79,1.93,1.89,3.57,3.29,4.94,1.4,1.37,3.06,2.43,5,3.18,1.94.75,4.06,1.13,6.38,1.13,2.35-.03,4.5-.43,6.45-1.21,1.95-.78,3.63-1.86,5.05-3.25,1.41-1.38,2.51-3.03,3.31-4.96.79-1.92,1.18-4.05,1.18-6.4s-.39-4.58-1.18-6.53ZM583.39,91.51c-.49,1.36-1.19,2.53-2.1,3.52-.9.99-1.99,1.77-3.26,2.33-1.28.57-2.69.85-4.24.85s-2.97-.28-4.22-.85c-1.26-.56-2.34-1.34-3.25-2.33-.9-.99-1.6-2.16-2.1-3.52-.49-1.36-.74-2.84-.74-4.45,0-1.5.25-2.9.74-4.2.5-1.3,1.2-2.44,2.1-3.41.91-.98,1.99-1.74,3.25-2.29,1.25-.55,2.66-.83,4.22-.83s2.96.28,4.24.83c1.27.55,2.36,1.31,3.26,2.29.91.97,1.61,2.11,2.1,3.41.5,1.3.74,2.7.74,4.2,0,1.61-.24,3.09-.74,4.45Z"></path><path class="cls-3" d="M612.03,89.01c2.23-.31,3.95-1.2,5.15-2.67,1.2-1.47,1.81-3.3,1.81-5.47,0-1.7-.32-3.1-.94-4.2-.62-1.1-1.45-1.98-2.5-2.63s-2.24-1.11-3.58-1.38c-1.35-.27-2.74-.4-4.18-.4h-10.43v30.01h5.34v-12.72h3.9l6.96,12.72h6.44l-7.97-13.27ZM609.15,84.87c-.77.08-1.53.11-2.29.11h-4.16v-8.14h4.62c.68,0,1.38.04,2.1.12.72.09,1.38.27,1.97.54.6.26,1.08.67,1.45,1.2.36.54.55,1.25.55,2.12,0,.99-.2,1.76-.6,2.32-.39.55-.91.96-1.54,1.23-.64.26-1.34.43-2.1.5Z"></path><path class="cls-3" d="M324.18,145.44c-.99,1.27-2.06,2.2-3.2,2.78-1.15.57-2.33.87-3.54.87-1.56,0-2.97-.29-4.23-.85-1.25-.57-2.33-1.35-3.24-2.34-.9-.99-1.6-2.16-2.1-3.52-.49-1.35-.74-2.84-.74-4.45,0-1.5.25-2.9.74-4.2.5-1.3,1.2-2.44,2.1-3.41.91-.98,1.99-1.74,3.24-2.29,1.26-.55,2.67-.83,4.23-.83,1.04,0,2.08.2,3.11.6,1.03.39,2.1,1.18,3.2,2.37l4.16-3.05c-1.5-1.73-3.12-2.95-4.86-3.67-1.73-.72-3.62-1.08-5.66-1.08-2.32,0-4.44.37-6.38,1.12-1.94.75-3.6,1.82-5,3.2-1.4,1.39-2.5,3.06-3.29,5.03-.79,1.96-1.19,4.15-1.19,6.55s.4,4.48,1.19,6.4c.79,1.93,1.89,3.57,3.29,4.94,1.4,1.38,3.06,2.44,5,3.19,1.94.74,4.06,1.12,6.38,1.12s4.29-.42,6.24-1.27,3.6-2.21,4.96-4.08l-4.41-3.13Z"></path><path class="cls-3" d="M339.22,148.31v-8.14h13.78v-4.84h-13.78v-7.37h14.54v-4.84h-19.88v30.02h20.64v-4.84h-15.3Z"></path><path class="cls-3" d="M382.35,123.13v22.3h-.09l-14.54-22.3h-7.08v30.02h5.34v-23.02h.09l14.83,23.02h6.79v-30.02h-5.34Z"></path><path class="cls-3" d="M393.02,123.13v4.84h9.2v25.18h5.35v-25.18h9.2v-4.84h-23.74Z"></path><path class="cls-3" d="M437.63,139.88c2.23-.31,3.95-1.2,5.15-2.67,1.2-1.47,1.8-3.29,1.8-5.47,0-1.7-.31-3.1-.93-4.2-.62-1.1-1.46-1.98-2.5-2.63-1.05-.65-2.25-1.11-3.59-1.38-1.34-.27-2.73-.4-4.17-.4h-10.44v30.02h5.35v-12.73h3.9l6.95,12.73h6.45l-7.97-13.28ZM434.74,135.75c-.76.07-1.52.1-2.29.1h-4.15v-8.14h4.62c.68,0,1.38.04,2.1.13.72.08,1.38.26,1.97.53.59.27,1.07.67,1.44,1.21.37.53.55,1.24.55,2.12,0,.99-.19,1.76-.59,2.31-.4.55-.91.96-1.55,1.23-.63.27-1.33.44-2.1.51Z"></path><path class="cls-3" d="M457.55,148.31v-8.14h13.77v-4.84h-13.77v-7.37h14.53v-4.84h-19.88v30.02h20.65v-4.84h-15.3Z"></path></g></g><path class="cls-2" d="M134.65,27.95C117.79,10.73,94.29,0,68.33,0S16.98,11.59,0,30.06l37.1,37.11c7.44-9.01,18.68-14.76,31.24-14.76,20.98,0,38.27,16.06,40.26,36.53.01.15.03.32.03.49l.11,1.32c.01-.43.02-.86.04-1.29,0-.13,0-.25,0-.38v-.02c0-.08.01-.15.01-.23.02-.59.05-1.19.08-1.78.05-.95.12-1.89.2-2.83.05-.58.1-1.16.17-1.73.06-.64.13-1.27.22-1.9.05-.41.11-.82.17-1.23.02-.16.04-.33.06-.49,0-.02,0-.03.01-.05.04-.3.09-.6.14-.91,0-.02,0-.05.01-.07.03-.22.07-.45.11-.67.04-.3.09-.59.15-.88.02-.11.04-.23.06-.34.05-.32.11-.64.17-.96.02-.14.05-.28.08-.42.07-.33.14-.65.21-.98.09-.44.18-.88.28-1.33.04-.21.09-.41.14-.62.13-.56.26-1.13.4-1.69.02-.08.04-.16.06-.24.01-.04.02-.09.04-.14.05-.21.1-.41.15-.62.01-.02.01-.04.02-.06.05-.18.1-.36.15-.54.1-.38.21-.77.31-1.16.15-.53.29-1.06.47-1.59.31-1.07.65-2.14,1.02-3.19.02-.05.04-.11.06-.17.08-.22.16-.45.24-.67.04-.12.08-.24.12-.36.19-.55.4-1.09.61-1.64.01-.05.03-.09.05-.13.01-.04.03-.08.04-.11.01-.04.03-.08.05-.12.03-.08.06-.15.09-.22.25-.64.5-1.29.77-1.93.18-.43.36-.86.54-1.28.01-.04.03-.08.05-.12.24-.56.49-1.12.75-1.68.91-1.99,1.89-3.95,2.94-5.86.21-.38.42-.76.64-1.14.23-.42.47-.84.72-1.25.23-.4.46-.78.7-1.17,1.22-2.01,2.52-3.98,3.89-5.89.01-.02.03-.04.06-.07.01-.02.01-.04.03-.05.05-.07.1-.13.16-.2.2-.27.4-.54.6-.81.13-.19.26-.37.4-.55.04-.06.09-.13.14-.2.08-.11.18-.22.27-.34.07-.1.13-.19.21-.28,0-.02.01-.03.03-.05.07-.08.13-.16.19-.24,0-.01,0-.02.02-.03.02-.04.05-.08.08-.11l.09-.12s.01-.02.02-.02c.03-.05.07-.09.1-.13.35-.45.71-.9,1.07-1.34.02-.01.03-.03.05-.04.14-.17.28-.35.42-.52.01-.03.03-.05.06-.08,0-.01.01-.02.02-.03.04-.05.07-.09.12-.14.01-.01.02-.03.03-.04l.06-.06c.09-.11.18-.22.27-.33.07-.07.13-.15.19-.22.01-.02.02-.03.03-.04s.03-.02.03-.04c.43-.49.85-.98,1.27-1.46t.02-.02c.45-.51.91-1.02,1.38-1.52,0-.01.01-.01.01-.01.47-.51.94-1.01,1.42-1.5-.04-.05-.08-.09-.13-.14Z"></path><path class="cls-1" d="M161.34,96.34v78.59c-.8-.38-1.6-.77-2.39-1.2-27.88-14.25-47.56-41.9-49.96-74.69-.01-.19-.04-.38-.05-.55-.14-2.08-.21-4.18-.21-6.29,0-.93.01-1.84.05-2.74,0-.13,0-.25.01-.38.79-23.66,10.55-45.1,25.99-60.98t.04.02c15.48,15.82,25.37,37.11,26.42,60.68v.44c.04,1.3.09,5.15.11,7.11Z"></path></g></g></svg>
